<svg aria-hidden="true" style="position: absolute; width: 0; height: 0; overflow: hidden;" version="1.1" xmlns="http://www.w3.org/2000/svg" xmlns:xlink="http://www.w3.org/1999/xlink">
<defs>
<symbol id="icon-faceboock" viewBox="0 0 32 32">
<path fill="" style="" d="M31.638 16.039c-0.013-3.073-0.937-6.073-2.655-8.621s-4.153-4.529-6.997-5.693c-2.844-1.164-5.969-1.458-8.98-0.846s-5.774 2.104-7.937 4.286c-2.164 2.182-3.632 4.957-4.219 7.973s-0.266 6.139 0.922 8.973c1.188 2.834 3.19 5.252 5.752 6.949s5.57 2.595 8.643 2.582c4.119-0.022 8.061-1.677 10.962-4.602s4.522-6.881 4.51-11zM2.426 17.076l10.327-0.044 0.017 3.96c0.001 0.242 0.098 0.474 0.27 0.645s0.405 0.266 0.647 0.265 0.474-0.098 0.645-0.27c0.171-0.172 0.266-0.405 0.265-0.647l-0.017-3.96 3.96-0.017c0.727-0.003 1.426 0.283 1.942 0.795s0.808 1.208 0.811 1.935l0.010 2.437c0.001 0.242 0.098 0.474 0.27 0.645s0.405 0.266 0.647 0.265c0.242-0.001 0.474-0.098 0.645-0.27s0.266-0.405 0.265-0.647l-0.010-2.437c-0.005-1.212-0.491-2.372-1.352-3.226s-2.025-1.33-3.237-1.325l-3.96 0.017-0.017-3.96c-0.001-0.242-0.098-0.474-0.27-0.645s-0.405-0.266-0.647-0.265c-0.242 0.001-0.474 0.098-0.645 0.27s-0.266 0.405-0.265 0.647l0.017 3.96-10.327 0.043c0.222-3.55 1.815-6.874 4.443-9.271s6.084-3.679 9.639-3.576c3.555 0.104 6.931 1.585 9.414 4.131s3.88 5.958 3.895 9.514c0.015 3.557-1.353 6.98-3.815 9.547s-5.825 4.077-9.379 4.21c-3.554 0.134-7.021-1.119-9.669-3.494s-4.269-5.686-4.521-9.234z"></path>
</symbol>
<symbol id="icon-phone" viewBox="0 0 34 32">
<path fill="" style="" d="M21.609 1.952c0.067-0.247 0.232-0.458 0.457-0.587s0.493-0.163 0.745-0.097c2.385 0.631 4.559 1.869 6.305 3.588s3.003 3.86 3.644 6.208c0.034 0.123 0.043 0.251 0.027 0.377s-0.058 0.248-0.122 0.359-0.15 0.207-0.253 0.285c-0.102 0.078-0.22 0.134-0.345 0.167s-0.255 0.041-0.384 0.024c-0.128-0.017-0.252-0.059-0.364-0.123s-0.209-0.149-0.288-0.251c-0.078-0.101-0.135-0.217-0.168-0.34-0.552-2.020-1.633-3.862-3.135-5.341s-3.373-2.543-5.425-3.087c-0.125-0.033-0.241-0.089-0.344-0.167s-0.188-0.173-0.253-0.283c-0.065-0.11-0.106-0.231-0.123-0.357s-0.008-0.254 0.025-0.376zM20.948 8.113c1.164 0.308 2.226 0.912 3.079 1.752s1.466 1.885 1.779 3.031c0.067 0.248 0.231 0.459 0.457 0.587s0.493 0.163 0.745 0.097 0.466-0.228 0.596-0.45c0.13-0.222 0.166-0.486 0.099-0.733-0.403-1.474-1.192-2.819-2.288-3.898s-2.462-1.856-3.96-2.253c-0.125-0.033-0.254-0.041-0.382-0.024s-0.251 0.058-0.363 0.121c-0.225 0.128-0.39 0.339-0.457 0.587s-0.032 0.511 0.099 0.733c0.13 0.222 0.345 0.384 0.596 0.45zM34.031 23.912c-0.274 2.098-1.314 4.026-2.927 5.424s-3.687 2.17-5.835 2.172c-12.807 0-23.226-10.257-23.226-22.865 0.002-2.115 0.786-4.157 2.206-5.745s3.378-2.612 5.509-2.882c0.492-0.058 0.99 0.042 1.419 0.285s0.767 0.617 0.963 1.065l3.286 7.548c0.149 0.342 0.21 0.714 0.177 1.085s-0.159 0.727-0.366 1.038l-2.721 4.093c-0.031 0.044-0.049 0.095-0.054 0.148s0.004 0.107 0.027 0.155c1.263 2.536 3.351 4.582 5.932 5.814 0.050 0.022 0.104 0.031 0.159 0.026s0.106-0.024 0.151-0.055l4.095-2.688c0.317-0.209 0.681-0.336 1.061-0.37s0.762 0.025 1.112 0.174l7.661 3.232c0.455 0.193 0.835 0.525 1.082 0.948s0.349 0.913 0.29 1.397zM32.084 23.67c0.007-0.068-0.008-0.137-0.044-0.196s-0.090-0.105-0.154-0.131l-7.661-3.232c-0.050-0.021-0.105-0.030-0.159-0.025s-0.106 0.023-0.152 0.053l-4.095 2.688c-0.329 0.217-0.709 0.345-1.104 0.374s-0.79-0.045-1.148-0.212c-2.977-1.421-5.386-3.781-6.843-6.706-0.171-0.35-0.247-0.737-0.221-1.124s0.153-0.761 0.37-1.086l2.721-4.093c0.030-0.044 0.048-0.095 0.052-0.148s-0.004-0.106-0.025-0.155l-3.286-7.548c-0.024-0.058-0.065-0.107-0.118-0.142s-0.114-0.054-0.177-0.055c-0.012 0-0.025 0.001-0.037 0.002-1.657 0.21-3.18 1.007-4.284 2.242s-1.713 2.823-1.715 4.468c0.006 5.55 2.249 10.871 6.235 14.795s9.391 6.132 15.028 6.138c1.671-0.001 3.284-0.601 4.538-1.688s2.064-2.586 2.277-4.217z"></path>
</symbol>
<symbol id="icon-insta" viewBox="0 0 32 32">
<path fill="" style="" d="M23.192 15.891c-0.006-1.417-0.432-2.8-1.224-3.974s-1.915-2.088-3.226-2.624-2.752-0.672-4.14-0.39c-1.388 0.282-2.662 0.97-3.659 1.976s-1.674 2.285-1.945 3.676c-0.271 1.39-0.123 2.83 0.425 4.137s1.47 2.421 2.652 3.203c1.181 0.782 2.568 1.196 3.984 1.19 1.899-0.010 3.716-0.774 5.053-2.122s2.085-3.172 2.079-5.071zM10.735 15.943c-0.004-1.047 0.302-2.072 0.88-2.945s1.402-1.555 2.368-1.96 2.030-0.514 3.058-0.314c1.028 0.2 1.973 0.7 2.717 1.437s1.252 1.678 1.46 2.705 0.108 2.091-0.288 3.060c-0.397 0.969-1.072 1.799-1.94 2.384s-1.89 0.9-2.937 0.905c-1.404 0.006-2.753-0.546-3.75-1.535s-1.56-2.333-1.566-3.737zM31.943 23.328l-0.063-14.948c-0.012-2.229-0.908-4.363-2.491-5.932s-3.724-2.447-5.953-2.44l-14.948 0.063c-2.229 0.012-4.363 0.908-5.932 2.49s-2.447 3.724-2.44 5.953l0.063 14.948c0.012 2.229 0.908 4.363 2.49 5.932s3.724 2.447 5.953 2.44l14.948-0.063c2.229-0.012 4.363-0.908 5.932-2.49s2.447-3.724 2.44-5.953zM8.614 29.966c-1.734 0.007-3.401-0.675-4.632-1.896s-1.928-2.882-1.935-4.616l-0.063-14.948c-0.007-1.734 0.675-3.401 1.896-4.632s2.882-1.928 4.616-1.935l14.948-0.063c1.734-0.007 3.401 0.675 4.632 1.896s1.928 2.882 1.935 4.616l0.063 14.948c0.007 1.734-0.675 3.401-1.896 4.632s-2.882 1.928-4.616 1.935l-14.948 0.063zM24.167 25.541c-0.308 0.001-0.609-0.089-0.866-0.259s-0.457-0.412-0.576-0.696c-0.119-0.284-0.151-0.597-0.092-0.899s0.206-0.58 0.423-0.799c0.217-0.219 0.494-0.368 0.795-0.43s0.615-0.032 0.9 0.085c0.285 0.117 0.529 0.315 0.701 0.571s0.265 0.556 0.266 0.864c0.002 0.413-0.161 0.81-0.451 1.103s-0.686 0.459-1.099 0.461z"></path>
</symbol>
<symbol id="icon-x" viewBox="0 0 32 32">
<path fill="" style="" d="M21.744 8l-5.744 5.744-5.744-5.744-2.256 2.256 5.744 5.744-5.744 5.744 2.256 2.256 5.744-5.744 5.744 5.744 2.256-2.256-5.744-5.744 5.744-5.744-2.256-2.256z"></path>
</symbol>
</defs>
</svg>
